<svg width="300" height="300" viewBox="0 0 300 300" fill="none" xmlns="http://www.w3.org/2000/svg">
<rect width="300" height="300" rx="150" fill="white"/>
<path d="M184.717 233.541C169.678 233.541 162.158 219.723 162.158 192.086C162.158 180.367 164.355 158.053 168.75 125.143L152.051 124.703C147.168 124.508 140.186 124.312 131.104 124.117C129.346 145.016 128.467 164.596 128.467 182.857C128.467 190.572 128.613 197.018 128.906 202.193C129.199 207.271 129.736 212.301 130.518 217.281C128.076 218.941 121.582 221.725 111.035 225.631C100.586 229.537 92.8223 232.223 87.7441 233.688L82.4707 227.242C88.3301 218.941 92.7246 211.471 95.6543 204.83C98.6816 198.189 101.27 188.863 103.418 176.852C105.664 164.742 107.861 147.066 110.01 123.824H104.004C97.5586 123.824 92.2852 124.459 88.1836 125.729C84.082 126.9 79.3945 129.342 74.1211 133.053L67.9688 124.41C75.0977 114.645 81.9336 106.93 88.4766 101.266C95.0195 95.6016 101.514 92.7695 107.959 92.7695H204.053C209.131 92.7695 213.232 92.5254 216.357 92.0371C219.58 91.5488 222.559 90.3281 225.293 88.375L231.592 95.8457C217.822 115.572 205.957 125.436 195.996 125.436H188.525C187.256 138.033 186.621 150.24 186.621 162.057C186.621 177.877 187.793 189.498 190.137 196.92C192.48 204.342 195.996 208.053 200.684 208.053C203.906 208.053 207.178 207.711 210.498 207.027C213.818 206.344 218.066 205.025 223.242 203.072L227.637 212.887C208.789 226.656 194.482 233.541 184.717 233.541Z" fill="black"/>
</svg>
